<svg width="376" height="34" viewBox="0 0 376 34" fill="none" xmlns="http://www.w3.org/2000/svg">
<path d="M17.6734 0.155645C25.7161 0.992805 32 7.79259 32 16.0617C32 24.8946 24.8453 32.0702 16.0171 32.0702C7.1889 32.0702 0 24.9117 0 16.0788C0 7.24588 7.15475 0.0702209 15.9829 0.0702209C16.5464 0.0702209 17.1099 0.104391 17.6563 0.155645H17.6734ZM18.4931 30.9597C26.7065 29.5758 32.2561 21.8022 30.873 13.5673C29.7289 6.73333 24.1451 1.74454 17.571 1.04406C16.2391 0.907381 14.873 0.94155 13.4899 1.18074C11.8506 1.4541 10.3308 1.98373 8.93063 2.73546C16.1708 5.19569 20.064 8.93728 20.3372 12.7643C20.4739 15.122 19.3639 16.8305 17.9296 18.2315L28.175 17.5139C28.4653 17.4968 28.5507 17.8385 28.2092 17.9239L3.77375 24.9287C6.26681 28.3628 10.1259 30.6351 14.412 31.0793C15.7439 31.216 17.1099 31.1818 18.4931 30.9426V30.9597ZM11.7652 16.4205C13.0971 11.3804 11.5774 6.10119 7.92316 3.31635C2.95411 6.45997 0.0853788 12.3884 1.10993 18.5732C1.45144 20.6233 2.1857 22.4856 3.22732 24.1428C7.1206 23.0665 10.5358 20.9992 11.7652 16.4205Z" fill="white"/>
<path d="M30.873 13.5626C32.2562 21.7804 26.7065 29.5711 18.4931 30.955C17.1099 31.1942 15.7439 31.2283 14.412 31.0917C10.126 30.6474 6.26683 28.3581 3.77376 24.9411L28.2092 17.9363C28.5678 17.8338 28.4653 17.4921 28.175 17.5262L17.9296 18.2438C19.381 16.8429 20.4739 15.1344 20.3373 12.7766C20.0641 8.94963 16.1708 5.20804 8.93065 2.74782C10.3309 2.01317 11.8506 1.48354 13.4899 1.19309C14.873 0.953904 16.2391 0.919734 17.571 1.05641C24.1452 1.73981 29.7119 6.7286 30.873 13.5796V13.5626ZM1.10994 18.5684C1.45146 20.6186 2.18572 22.4809 3.22734 24.1381C7.12062 23.0618 10.5358 20.9945 11.7652 16.4157C13.0971 11.3757 11.5774 6.09646 7.92318 3.31162C2.95413 6.45524 0.0853971 12.3837 1.10994 18.5684Z" fill="#C90C0F"/>
<path d="M67.4516 32.0702L64.347 28.4628C63.0996 29.2692 61.7316 29.9058 60.2431 30.3726C58.7547 30.8253 57.1882 31.0517 55.5438 31.0517C53.3608 31.0517 51.3265 30.6626 49.4411 29.8845C47.5557 29.1065 45.9042 28.0242 44.4867 26.6379C43.0833 25.2373 41.9846 23.5963 41.1908 21.7148C40.3969 19.8191 40 17.7678 40 15.5609C40 13.354 40.3898 11.3098 41.1695 9.42831C41.9634 7.54679 43.0691 5.90576 44.4867 4.50523C45.9042 3.1047 47.5628 2.0154 49.4624 1.23733C51.3761 0.459257 53.4458 0.0702209 55.6714 0.0702209C57.8687 0.0702209 59.91 0.466331 61.7954 1.25855C63.695 2.03662 65.3535 3.12592 66.7711 4.52645C68.2029 5.92699 69.3157 7.56094 70.1095 9.42831C70.9176 11.2957 71.3216 13.3187 71.3216 15.4973C71.3216 17.5769 70.953 19.5291 70.2159 21.354C69.4929 23.1648 68.4935 24.7493 67.2177 26.1074L70.2584 29.5875L67.4516 32.0702ZM55.6714 26.8925C56.763 26.8925 57.8049 26.744 58.7972 26.4469C59.7895 26.1498 60.7039 25.7254 61.5402 25.1737L57.0323 19.9747L59.6903 17.6405L64.2195 22.797C64.9708 21.8775 65.5662 20.8094 66.0056 19.5928C66.4451 18.362 66.6648 17.0181 66.6648 15.5609C66.6648 13.2975 66.1757 11.3311 65.1976 9.66173C64.2195 7.97827 62.894 6.67676 61.2213 5.75722C59.5627 4.82354 57.7127 4.35669 55.6714 4.35669C54.1404 4.35669 52.7087 4.62548 51.3761 5.16306C50.0578 5.68649 48.9024 6.43627 47.9101 7.4124C46.932 8.38852 46.1665 9.56978 45.6136 10.9562C45.0608 12.3284 44.7844 13.8633 44.7844 15.5609C44.7844 17.8244 45.2663 19.805 46.2303 21.5026C47.1943 23.2002 48.4984 24.5229 50.1428 25.4708C51.7872 26.4186 53.6301 26.8925 55.6714 26.8925Z" fill="url(#paint0_linear_24920_21541)"/>
<path d="M86.9216 31.0517C83.8312 31.0517 81.1307 30.415 78.82 29.1418C76.5094 27.8686 74.7091 26.072 73.419 23.7519C72.1432 21.4177 71.5053 18.6944 71.5053 15.5822C71.5053 13.3187 71.881 11.2462 72.6323 9.36465C73.3978 7.46898 74.4681 5.82796 75.8431 4.44157C77.2324 3.05519 78.8697 1.98004 80.7551 1.21611C82.6404 0.452184 84.7101 0.0702209 86.9641 0.0702209C89.2322 0.0702209 91.1885 0.353156 92.8329 0.919026C94.4915 1.4849 95.9374 2.29127 97.1707 3.33813L94.7041 7.22141C93.7685 6.35846 92.677 5.71478 91.4295 5.29038C90.182 4.86598 88.8069 4.65377 87.3043 4.65377C85.6457 4.65377 84.1502 4.90842 82.8176 5.4177C81.4851 5.92698 80.344 6.65554 79.3942 7.60338C78.4586 8.53706 77.7356 9.67588 77.2253 11.0198C76.7291 12.3496 76.481 13.8563 76.481 15.5397C76.481 17.8315 76.9276 19.7908 77.8207 21.4177C78.7279 23.0446 80.0037 24.2895 81.6481 25.1524C83.3067 26.0013 85.263 26.4257 87.5169 26.4257C89.0196 26.4257 90.4655 26.2064 91.8548 25.7678C93.2582 25.3151 94.5694 24.5866 95.7886 23.5822L98 27.5928C96.5682 28.7104 94.9309 29.5662 93.0881 30.1604C91.2594 30.7546 89.2039 31.0517 86.9216 31.0517Z" fill="url(#paint1_linear_24920_21541)"/>
<path d="M134.254 4.64046H117.466V13.0552H132.089V17.015H117.466V25.8835H134.213V30.0702H112.949V0.494977H134.254V4.64046ZM165.088 30.0702H159.54L151.063 18.5412L142.525 30.0702H136.997L147.928 15.1589L137.245 0.494977H142.772L151.063 11.7765L159.292 0.494977H164.819L154.136 15.1589L165.088 30.0702ZM182.123 0.494977V0.474352C185.155 0.474352 187.589 1.48494 189.404 3.50612C191.218 5.52731 192.126 7.83723 192.126 10.4359C192.126 13.0346 191.198 15.3238 189.362 17.3244C187.527 19.325 185.031 20.3149 181.896 20.3149H173.255V30.0702H168.676V0.494977H182.123ZM181.814 16.1488C183.587 16.1488 185.011 15.5713 186.083 14.437C187.155 13.3027 187.692 11.9621 187.692 10.4153C187.692 8.86844 187.155 7.50724 186.083 6.35228C185.011 5.19732 183.67 4.61984 182.041 4.61984H173.255V16.1488H181.814ZM217.453 4.64046H200.664V13.0552H215.287V17.015H200.664V25.8835H217.411V30.0702H196.148V0.494977H217.453V4.64046ZM241.769 30.0702L234.591 19.0775H227.125V30.0496H222.547V0.474352H236.613C239.562 0.474352 241.913 1.42307 243.666 3.32051C245.419 5.21794 246.306 7.38349 246.306 9.83778C246.306 11.859 245.708 13.6945 244.491 15.3651C243.274 17.0357 241.583 18.1494 239.417 18.7062L247.048 30.0702H241.769ZM227.125 4.57859L227.084 14.9939H236.324C237.994 14.9939 239.335 14.4783 240.346 13.4677C241.356 12.4571 241.872 11.2402 241.872 9.81716C241.872 8.39408 241.377 7.15663 240.387 6.12541C239.397 5.0942 238.098 4.57859 236.489 4.57859H227.125ZM251.462 30.0702V0.494977H256.123V30.0702H251.462ZM283.327 4.64046H266.538V13.0552H281.161V17.015H266.538V25.8835H283.285V30.0702H262.022V0.494977H283.327V4.64046ZM308.612 0.494977H313.232V30.0702H309.375L292.999 8.6622V30.0702H288.38V0.494977H292.236L308.612 21.9236V0.494977ZM333.217 30.6271L333.176 30.6889C328.783 30.6889 325.111 29.2246 322.162 26.2754C319.213 23.3261 317.749 19.6756 317.749 15.3032C317.749 10.9309 319.213 7.28037 322.142 4.37234C325.07 1.46432 328.721 -6.41495e-06 333.114 -6.41495e-06C336.661 -6.41495e-06 339.693 0.886838 342.188 2.68115C344.684 4.47547 346.354 6.66164 347.2 9.23968L342.766 10.3534C342.126 8.60033 340.951 7.15663 339.239 6.00166C337.527 4.8467 335.506 4.26922 333.176 4.26922C329.999 4.26922 327.421 5.32106 325.441 7.44537C323.461 9.56967 322.472 12.1683 322.472 15.2414C322.472 18.335 323.461 20.9543 325.441 23.1198C327.421 25.2854 329.999 26.3578 333.176 26.3578C335.506 26.3578 337.527 25.801 339.239 24.6667C340.951 23.5323 342.126 22.0886 342.745 20.3356L347.179 21.4699C346.334 24.0273 344.684 26.1929 342.209 27.9665C339.734 29.7402 336.744 30.6271 333.217 30.6271ZM373.084 4.64046H356.295V13.0552H370.918V17.015H356.295V25.8835H373.042V30.0702H351.779V0.494977H373.084V4.64046Z" fill="#797F8C"/>
<defs>
<linearGradient id="paint0_linear_24920_21541" x1="69.0839" y1="-16.1449" x2="69.0839" y2="48.1522" gradientUnits="userSpaceOnUse">
<stop stop-color="#222530"/>
<stop offset="1" stop-color="#99A0AE"/>
</linearGradient>
<linearGradient id="paint1_linear_24920_21541" x1="69.0839" y1="-16.1449" x2="69.0839" y2="48.1522" gradientUnits="userSpaceOnUse">
<stop stop-color="#222530"/>
<stop offset="1" stop-color="#99A0AE"/>
</linearGradient>
</defs>
</svg>
