<svg width="32" height="32" viewBox="0 0 32 32" fill="none" xmlns="http://www.w3.org/2000/svg">
<path d="M17.6734 0.0854245C25.7161 0.922584 32 7.72237 32 15.9915C32 24.8243 24.8453 32 16.0171 32C7.1889 32 0 24.8414 0 16.0085C0 7.17565 7.15475 0 15.9829 0C16.5464 0 17.1099 0.0341698 17.6563 0.0854245H17.6734ZM18.4931 30.8895C26.7065 29.5056 32.2561 21.732 30.873 13.4971C29.7289 6.66311 24.1451 1.67432 17.571 0.973839C16.2391 0.83716 14.873 0.871329 13.4899 1.11052C11.8506 1.38388 10.3308 1.91351 8.93063 2.66524C16.1708 5.12547 20.064 8.86706 20.3372 12.6941C20.4739 15.0518 19.3639 16.7603 17.9296 18.1612L28.175 17.4437C28.4653 17.4266 28.5507 17.7683 28.2092 17.8537L3.77375 24.8585C6.26681 28.2926 10.1259 30.5649 14.412 31.0091C15.7439 31.1458 17.1099 31.1116 18.4931 30.8724V30.8895ZM11.7652 16.3502C13.0971 11.3102 11.5774 6.03097 7.92316 3.24613C2.95411 6.38975 0.0853788 12.3182 1.10993 18.5029C1.45144 20.5531 2.1857 22.4154 3.22732 24.0726C7.1206 22.9963 10.5358 20.929 11.7652 16.3502Z" fill="white"/>
<path d="M30.873 13.4923C32.2562 21.7102 26.7065 29.5009 18.4931 30.8848C17.1099 31.1239 15.7439 31.1581 14.412 31.0214C10.126 30.5772 6.26683 28.2878 3.77376 24.8709L28.2092 17.8661C28.5678 17.7636 28.4653 17.4219 28.175 17.456L17.9296 18.1736C19.381 16.7726 20.4739 15.0641 20.3373 12.7064C20.0641 8.87941 16.1708 5.13782 8.93065 2.6776C10.3309 1.94295 11.8506 1.41331 13.4899 1.12287C14.873 0.883683 16.2391 0.849513 17.571 0.986192C24.1452 1.66959 29.7119 6.65838 30.873 13.5094V13.4923ZM1.10994 18.4982C1.45146 20.5484 2.18572 22.4106 3.22734 24.0679C7.12062 22.9915 10.5358 20.9243 11.7652 16.3455C13.0971 11.3055 11.5774 6.02624 7.92318 3.2414C2.95413 6.38502 0.0853971 12.3135 1.10994 18.4982Z" fill="#C90C0F"/>
</svg>
