<svg width="58" height="32" viewBox="0 0 58 32" fill="none" xmlns="http://www.w3.org/2000/svg">
  <defs><linearGradient id="qcText" x1="29.0839" y1="-16.2151" x2="29.0839" y2="48.0819" gradientUnits="userSpaceOnUse"><stop stop-color="#222530"/><stop offset="1" stop-color="#99A0AE"/></linearGradient></defs>
  <path d="m27.4516 32-3.1046-3.6074c-1.2474.8063-2.6154 1.4429-4.1039 1.9098-1.4884.4527-3.0549.679-4.6993.679-2.183 0-4.2173-.389-6.1027-1.1671-1.8854-.778-3.5369-1.8603-4.9545-3.2467-1.4034-1.4005-2.502-3.0415-3.2959-4.923C.3969 19.7489 0 17.6976 0 15.4907s.3898-4.2511 1.1695-6.1326c.7939-1.8815 1.8996-3.5226 3.3172-4.9231 1.4176-1.4005 3.0761-2.4898 4.9757-3.2679C11.3761.389 13.4458 0 15.6714 0c2.1973 0 4.2386.3961 6.124 1.1883 1.8996.7781 3.5581 1.8674 4.9757 3.2679 1.4318 1.4006 2.5446 3.0345 3.3384 4.9019.8081 1.8674 1.2121 3.8904 1.2121 6.069 0 2.0795-.3686 4.0318-1.1057 5.8567-.723 1.8108-1.7224 3.3952-2.9982 4.7533l3.0407 3.4801L27.4516 32Zm-11.7802-5.1777c1.0916 0 2.1335-.1486 3.1258-.4456.9923-.2971 1.9067-.7215 2.743-1.2733l-4.5079-5.1989 2.658-2.3342 4.5292 5.1565c.7513-.9195 1.3467-1.9876 1.7861-3.2043.4395-1.2307.6592-2.5747.6592-4.0318 0-2.2635-.4891-4.2299-1.4672-5.8992-.9781-1.6835-2.3036-2.985-3.9763-3.9045-1.6586-.9337-3.5086-1.4005-5.5499-1.4005-1.531 0-2.9627.2688-4.2953.8064-1.3183.5234-2.4737 1.2732-3.466 2.2493-.9781.9761-1.7436 2.1574-2.2964 3.5437-.5529 1.3723-.8293 2.9072-.8293 4.6048 0 2.2635.482 4.244 1.4459 5.9417.964 1.6976 2.2682 3.0203 3.9126 3.9681 1.6444.9479 3.4873 1.4218 5.3284 1.4218Z" fill="url(#qcText)"/>
  <path d="M46.9216 30.9814c-3.0904 0-5.7909-.6366-8.1016-1.9098-2.3106-1.2732-4.1109-3.0698-5.401-5.3899-1.2758-2.3342-1.9137-5.0575-1.9137-8.1698 0-2.2634.3757-4.3359 1.127-6.2175.7655-1.8956 1.8358-3.5366 3.2108-4.923 1.3893-1.3864 3.0266-2.4616 4.912-3.2255C42.6404.382 44.7101 0 46.9641 0c2.2681 0 4.2244.2829 5.8688.8488 1.6586.5659 3.1045 1.3722 4.3378 2.4191L54.7041 7.1512c-.9356-.863-2.0271-1.5066-3.2746-1.931-1.2475-.4244-2.6226-.6367-4.1252-.6367-1.6586 0-3.1541.2547-4.4867.7639-1.3325.5093-2.4736 1.2378-3.4234 2.1858-.9356.9336-1.6586 2.0724-2.1689 3.4164-.4962 1.3298-.7443 2.8364-.7443 4.5199 0 2.2918.4466 4.2511 1.3397 5.878.9072 1.6269 2.182 2.8718 3.8264 3.7347 1.6586.8488 3.6149 1.2732 5.8688 1.2732 1.5027 0 2.9486-.2192 4.3379-.6578 1.4034-.4527 2.7146-1.1812 3.9338-2.1857L58 27.5225c-1.4318 1.1176-3.0691 1.9735-4.9119 2.5677-1.8287.5941-3.8842.8912-6.1665.8912Z" fill="url(#qcText)"/>
</svg>
